<mxfile host="app.diagrams.net" agent="Mozilla/5.0 (Macintosh; Intel Mac OS X 10.15; rv:132.0) Gecko/20100101 Firefox/132.0" version="24.8.6">
  <diagram name="Page-1" id="VRUQ8dVfXQkqeMk8kqtF">
    <mxGraphModel dx="-803" dy="910" grid="0" gridSize="10" guides="1" tooltips="1" connect="1" arrows="1" fold="1" page="0" pageScale="1" pageWidth="850" pageHeight="1100" background="none" math="0" shadow="0">
      <root>
        <mxCell id="0" />
        <mxCell id="1" parent="0" />
        <mxCell id="2oDCZ59gt5adBUawRl_z-19" value="&lt;font style=&quot;font-size: 18px;&quot;&gt;&lt;br&gt;&lt;/font&gt;" style="ellipse;shape=cloud;whiteSpace=wrap;html=1;strokeWidth=3;fillColor=none;" vertex="1" parent="1">
          <mxGeometry x="1471.32" y="611.38" width="719.68" height="339.47" as="geometry" />
        </mxCell>
        <mxCell id="uIFGj-9vmJh0Lf0Ihtq9-66" value="&lt;font style=&quot;font-size: 18px;&quot;&gt;&lt;br&gt;&lt;/font&gt;" style="ellipse;shape=cloud;whiteSpace=wrap;html=1;strokeWidth=3;fillColor=none;" parent="1" vertex="1">
          <mxGeometry x="1471.32" y="940.53" width="719.68" height="339.47" as="geometry" />
        </mxCell>
        <mxCell id="uIFGj-9vmJh0Lf0Ihtq9-74" value="" style="group;fillColor=none;" parent="1" vertex="1" connectable="0">
          <mxGeometry x="1517.997195930399" y="670.382014925373" width="608.5786122063158" height="386.24" as="geometry" />
        </mxCell>
        <mxCell id="uIFGj-9vmJh0Lf0Ihtq9-68" value="&lt;font style=&quot;font-size: 18px;&quot;&gt;Database&lt;br&gt;&lt;/font&gt;" style="shape=cylinder3;whiteSpace=wrap;html=1;boundedLbl=1;backgroundOutline=1;size=15;strokeWidth=3;fillColor=none;" parent="uIFGj-9vmJh0Lf0Ihtq9-74" vertex="1">
          <mxGeometry x="129.55" y="47.169999999999995" width="124.55" height="124.55" as="geometry" />
        </mxCell>
        <mxCell id="uIFGj-9vmJh0Lf0Ihtq9-70" value="&lt;font style=&quot;font-size: 18px;&quot;&gt;Server&lt;/font&gt;" style="whiteSpace=wrap;html=1;aspect=fixed;strokeWidth=3;fillColor=none;" parent="uIFGj-9vmJh0Lf0Ihtq9-74" vertex="1">
          <mxGeometry x="407.46280406960113" y="47.52798507462694" width="124.19" height="124.19" as="geometry" />
        </mxCell>
        <mxCell id="uIFGj-9vmJh0Lf0Ihtq9-72" value="" style="endArrow=classic;startArrow=classic;html=1;rounded=0;exitX=1;exitY=0.5;exitDx=0;exitDy=0;exitPerimeter=0;entryX=0;entryY=0.5;entryDx=0;entryDy=0;strokeWidth=3;fillColor=none;" parent="uIFGj-9vmJh0Lf0Ihtq9-74" source="uIFGj-9vmJh0Lf0Ihtq9-68" target="uIFGj-9vmJh0Lf0Ihtq9-70" edge="1">
          <mxGeometry width="50" height="50" relative="1" as="geometry">
            <mxPoint x="238.85757639830354" y="121.97014925373139" as="sourcePoint" />
            <mxPoint x="302.3835275680651" y="58.44402985074635" as="targetPoint" />
          </mxGeometry>
        </mxCell>
        <mxCell id="2oDCZ59gt5adBUawRl_z-17" value="&lt;font style=&quot;font-size: 18px;&quot;&gt;TCP&lt;/font&gt;" style="text;html=1;align=center;verticalAlign=middle;whiteSpace=wrap;rounded=0;fillColor=none;" vertex="1" parent="uIFGj-9vmJh0Lf0Ihtq9-74">
          <mxGeometry x="305.55280406960105" y="69.52798507462694" width="60" height="30" as="geometry" />
        </mxCell>
        <mxCell id="2oDCZ59gt5adBUawRl_z-16" value="&lt;font style=&quot;font-size: 18px;&quot;&gt;TCP&lt;/font&gt;" style="text;html=1;align=center;verticalAlign=middle;whiteSpace=wrap;rounded=0;fillColor=none;" vertex="1" parent="uIFGj-9vmJh0Lf0Ihtq9-74">
          <mxGeometry x="483.0028040696013" y="265.617985074627" width="60" height="30" as="geometry" />
        </mxCell>
        <mxCell id="uIFGj-9vmJh0Lf0Ihtq9-76" value="" style="endArrow=classic;html=1;rounded=0;exitX=0.5;exitY=0;exitDx=0;exitDy=0;entryX=0.5;entryY=1;entryDx=0;entryDy=0;strokeWidth=3;fillColor=none;" parent="1" source="uIFGj-9vmJh0Lf0Ihtq9-61" target="uIFGj-9vmJh0Lf0Ihtq9-64" edge="1">
          <mxGeometry width="50" height="50" relative="1" as="geometry">
            <mxPoint x="1650" y="1198" as="sourcePoint" />
            <mxPoint x="1700" y="1148" as="targetPoint" />
          </mxGeometry>
        </mxCell>
        <mxCell id="uIFGj-9vmJh0Lf0Ihtq9-77" value="&lt;font style=&quot;font-size: 18px;&quot;&gt;&lt;b&gt;End Device (Sensor)&lt;br&gt;&lt;/b&gt;&lt;/font&gt;" style="rounded=0;whiteSpace=wrap;html=1;strokeWidth=3;container=0;fillColor=none;" parent="1" vertex="1">
          <mxGeometry x="1306" y="1461" width="202" height="42" as="geometry" />
        </mxCell>
        <mxCell id="uIFGj-9vmJh0Lf0Ihtq9-84" value="&lt;font style=&quot;font-size: 18px;&quot;&gt;&lt;b&gt;Website&lt;/b&gt;&lt;/font&gt;" style="rounded=0;whiteSpace=wrap;html=1;strokeWidth=3;fillColor=none;" parent="1" vertex="1">
          <mxGeometry x="2295" y="708.4999999999999" width="140.5" height="140.5" as="geometry" />
        </mxCell>
        <mxCell id="uIFGj-9vmJh0Lf0Ihtq9-85" value="" style="endArrow=classic;html=1;rounded=0;exitX=1;exitY=0.5;exitDx=0;exitDy=0;entryX=0;entryY=0.5;entryDx=0;entryDy=0;strokeWidth=3;fillColor=none;" parent="1" source="uIFGj-9vmJh0Lf0Ihtq9-70" target="uIFGj-9vmJh0Lf0Ihtq9-84" edge="1">
          <mxGeometry width="50" height="50" relative="1" as="geometry">
            <mxPoint x="1889" y="796" as="sourcePoint" />
            <mxPoint x="1939" y="746" as="targetPoint" />
          </mxGeometry>
        </mxCell>
        <mxCell id="uIFGj-9vmJh0Lf0Ihtq9-73" value="" style="endArrow=classic;html=1;rounded=0;exitX=1;exitY=0.5;exitDx=0;exitDy=0;entryX=0;entryY=0.5;entryDx=0;entryDy=0;strokeWidth=3;fillColor=none;" parent="1" source="uIFGj-9vmJh0Lf0Ihtq9-64" target="2oDCZ59gt5adBUawRl_z-6" edge="1">
          <mxGeometry width="50" height="50" relative="1" as="geometry">
            <mxPoint x="2082.7795798559714" y="1038.938432835821" as="sourcePoint" />
            <mxPoint x="1993.8432482183052" y="944.919776119403" as="targetPoint" />
          </mxGeometry>
        </mxCell>
        <mxCell id="uIFGj-9vmJh0Lf0Ihtq9-78" value="&lt;font style=&quot;font-size: 18px;&quot;&gt;&lt;b&gt;Network Server&lt;br&gt;&lt;/b&gt;&lt;/font&gt;" style="rounded=0;whiteSpace=wrap;html=1;strokeWidth=3;fillColor=none;" parent="1" vertex="1">
          <mxGeometry x="1294.5523884031293" y="1106.640447761194" width="213.4471959303989" height="53.36194029850746" as="geometry" />
        </mxCell>
        <mxCell id="uIFGj-9vmJh0Lf0Ihtq9-64" value="&lt;font style=&quot;font-size: 18px;&quot;&gt;LoRa Gateway&lt;br&gt;&lt;/font&gt;" style="rounded=1;whiteSpace=wrap;html=1;strokeWidth=3;fillColor=none;" parent="1" vertex="1">
          <mxGeometry x="1611.917195930399" y="1069.452014925373" width="194.17" height="97.09" as="geometry" />
        </mxCell>
        <mxCell id="2oDCZ59gt5adBUawRl_z-6" value="&lt;font style=&quot;font-size: 18px;&quot;&gt;MQTT Broker&lt;/font&gt;" style="shape=hexagon;perimeter=hexagonPerimeter2;whiteSpace=wrap;html=1;fixedSize=1;strokeWidth=3;fillColor=none;" vertex="1" parent="1">
          <mxGeometry x="1900" y="1060" width="174" height="116" as="geometry" />
        </mxCell>
        <mxCell id="2oDCZ59gt5adBUawRl_z-8" value="" style="endArrow=classic;html=1;rounded=0;exitX=0.5;exitY=0;exitDx=0;exitDy=0;entryX=0.5;entryY=1;entryDx=0;entryDy=0;strokeWidth=3;fillColor=none;" edge="1" parent="1" source="2oDCZ59gt5adBUawRl_z-6" target="uIFGj-9vmJh0Lf0Ihtq9-70">
          <mxGeometry width="50" height="50" relative="1" as="geometry">
            <mxPoint x="1904" y="1015" as="sourcePoint" />
            <mxPoint x="1954" y="965" as="targetPoint" />
          </mxGeometry>
        </mxCell>
        <mxCell id="2oDCZ59gt5adBUawRl_z-14" value="&lt;font style=&quot;font-size: 18px;&quot;&gt;LoRaWAN&lt;/font&gt;" style="text;html=1;align=center;verticalAlign=middle;whiteSpace=wrap;rounded=0;fillColor=none;" vertex="1" parent="1">
          <mxGeometry x="1588" y="1239" width="114" height="41" as="geometry" />
        </mxCell>
        <mxCell id="2oDCZ59gt5adBUawRl_z-18" value="&lt;font style=&quot;font-size: 18px;&quot;&gt;HTTP&lt;/font&gt;" style="text;html=1;align=center;verticalAlign=middle;whiteSpace=wrap;rounded=0;fillColor=none;" vertex="1" parent="1">
          <mxGeometry x="2175" y="740" width="60" height="30" as="geometry" />
        </mxCell>
        <mxCell id="uIFGj-9vmJh0Lf0Ihtq9-54" value="" style="ellipse;whiteSpace=wrap;html=1;aspect=fixed;strokeWidth=3;container=0;fillColor=none;" parent="1" vertex="1">
          <mxGeometry x="1530" y="1300" width="358" height="358" as="geometry" />
        </mxCell>
        <mxCell id="uIFGj-9vmJh0Lf0Ihtq9-56" value="" style="rounded=1;whiteSpace=wrap;html=1;strokeWidth=3;container=0;fillColor=none;" parent="1" vertex="1">
          <mxGeometry x="1615.3953488372092" y="1469.7906976744187" width="187.2093023255814" height="154.65116279069767" as="geometry" />
        </mxCell>
        <mxCell id="uIFGj-9vmJh0Lf0Ihtq9-57" value="&lt;font style=&quot;font-size: 18px;&quot;&gt;Time of Flight Sensor&lt;/font&gt;" style="rounded=1;whiteSpace=wrap;html=1;strokeWidth=3;container=0;fillColor=none;" parent="1" vertex="1">
          <mxGeometry x="1623.53488372093" y="1486.0697674418604" width="170.93023255813952" height="56.97674418604651" as="geometry" />
        </mxCell>
        <mxCell id="uIFGj-9vmJh0Lf0Ihtq9-58" value="&lt;font style=&quot;font-size: 18px;&quot;&gt;Magnetic Field Sensor&lt;/font&gt;" style="rounded=1;whiteSpace=wrap;html=1;strokeWidth=3;container=0;fillColor=none;" parent="1" vertex="1">
          <mxGeometry x="1623.53488372093" y="1551.1860465116279" width="170.93023255813952" height="56.97674418604651" as="geometry" />
        </mxCell>
        <mxCell id="uIFGj-9vmJh0Lf0Ihtq9-60" value="&lt;font style=&quot;font-size: 18px;&quot;&gt;Microcontroller&lt;br&gt;&lt;/font&gt;" style="rounded=1;whiteSpace=wrap;html=1;strokeWidth=3;container=0;fillColor=none;" parent="1" vertex="1">
          <mxGeometry x="1623.5348837209303" y="1404.6744186046512" width="170.93023255813952" height="56.97674418604651" as="geometry" />
        </mxCell>
        <mxCell id="uIFGj-9vmJh0Lf0Ihtq9-61" value="&lt;font style=&quot;font-size: 18px;&quot;&gt;Lora Transmitter&lt;/font&gt;" style="rounded=1;whiteSpace=wrap;html=1;strokeWidth=3;container=0;fillColor=none;" parent="1" vertex="1">
          <mxGeometry x="1623.5348837209303" y="1339.5581395348838" width="170.93023255813952" height="56.97674418604651" as="geometry" />
        </mxCell>
        <mxCell id="uIFGj-9vmJh0Lf0Ihtq9-62" value="" style="endArrow=classic;html=1;rounded=0;entryX=1;entryY=0.5;entryDx=0;entryDy=0;strokeWidth=3;fillColor=none;" parent="1" target="uIFGj-9vmJh0Lf0Ihtq9-60" edge="1">
          <mxGeometry width="50" height="50" relative="1" as="geometry">
            <mxPoint x="1802.6046511627908" y="1551.1372093023256" as="sourcePoint" />
            <mxPoint x="1798.5348837209303" y="1445.372093023256" as="targetPoint" />
            <Array as="points">
              <mxPoint x="1847.372093023256" y="1551.186046511628" />
              <mxPoint x="1847.372093023256" y="1433.1627906976746" />
            </Array>
          </mxGeometry>
        </mxCell>
        <mxCell id="uIFGj-9vmJh0Lf0Ihtq9-63" value="" style="endArrow=classic;html=1;rounded=0;entryX=0;entryY=0.5;entryDx=0;entryDy=0;strokeWidth=3;fillColor=none;" parent="1" target="uIFGj-9vmJh0Lf0Ihtq9-61" edge="1">
          <mxGeometry width="50" height="50" relative="1" as="geometry">
            <mxPoint x="1623.5348837209303" y="1437.1837209302328" as="sourcePoint" />
            <mxPoint x="1627.6046511627908" y="1331.418604651163" as="targetPoint" />
            <Array as="points">
              <mxPoint x="1578.7674418604652" y="1437.232558139535" />
              <mxPoint x="1578.7674418604652" y="1368.046511627907" />
            </Array>
          </mxGeometry>
        </mxCell>
        <mxCell id="2oDCZ59gt5adBUawRl_z-15" value="&lt;font style=&quot;font-size: 18px;&quot;&gt;TCP&lt;/font&gt;" style="text;html=1;align=center;verticalAlign=middle;whiteSpace=wrap;rounded=0;fillColor=none;" vertex="1" parent="1">
          <mxGeometry x="1823" y="1130" width="60" height="30" as="geometry" />
        </mxCell>
        <mxCell id="2oDCZ59gt5adBUawRl_z-20" value="&lt;font style=&quot;font-size: 18px;&quot;&gt;&lt;b&gt;Application Server&lt;br&gt;&lt;/b&gt;&lt;/font&gt;" style="rounded=0;whiteSpace=wrap;html=1;strokeWidth=3;fillColor=none;" vertex="1" parent="1">
          <mxGeometry x="1280.0023884031293" y="765.6404477611941" width="213.4471959303989" height="53.36194029850746" as="geometry" />
        </mxCell>
      </root>
    </mxGraphModel>
  </diagram>
</mxfile>
